# xmcd CD database file
#
# Track frame offsets:
#	150
#	22550
#	39310
#	52947
#	67830
#	85847
#	110040
#	122632
#	144017
#	157490
#	180995
#	193022
#	211065
#
# Disc length: 3106 seconds
#
# Revision: 3
# Processed by: cddbd v1.5.2PL0 Copyright (c) Steve Scherf et al.
# Submitted via: CDex 1.78
#
DISCID=9e0c200d
DTITLE=Various Artist - Justin Time for Christmas Two
DYEAR=1997
DGENRE=Jazz
TTITLE0=Oliver Jones - Santa Claus Is Coming To Town
TTITLE1=Bryan Lee - Santa Claus Is Messin' With The Kid
TTITLE2=Diana Krall - Jingle Bells
TTITLE3=Kenny Wheeler and Paul Bley - The Christmas Song
TTITLE4=Dave Young and The Phil Dwyer Quartet - Winter Wonderland
TTITLE5=Ranee Lee Featuring Ray Brown - Have Youself A Merry Little Christmas
TTITLE6=Paul Bley Trio - Silent Night
TTITLE7=Montreal Jubilation Gospel Choir - Kings Of Orient
TTITLE8=Dave Young Trio - It Came Upon A Midnight Clear
TTITLE9=Jeri Brown With D.D. Jackson - White Christmas
TTITLE10=Quartango - Midnight Chretien/O Holy Night
TTITLE11=Oliver Jones - Let It Snow, Let It Snow, Let It Snow
TTITLE12=Montreal Jubilation Gospel Choir - Silent Night
EXTD=YEAR: 1997
EXTT0=
EXTT1=
EXTT2=
EXTT3=
EXTT4=
EXTT5=
EXTT6=
EXTT7=
EXTT8=
EXTT9=
EXTT10=
EXTT11=
EXTT12=
PLAYORDER=
